<svg width="20" height="20" viewBox="0 0 20 20" fill="none" xmlns="http://www.w3.org/2000/svg">
<rect x="0.547897" y="0.101608" width="19.3744" height="19.3744" rx="5.53556" fill="#F5F3FE"/>
<path fill-rule="evenodd" clip-rule="evenodd" d="M10.7844 6.76207C10.5592 6.6472 10.254 6.64543 10.027 6.76C9.23341 7.27603 8.39437 7.76795 7.67569 8.26119C7.56872 8.34755 7.49281 8.47305 7.49411 8.62077C7.4954 8.76789 7.57285 8.89171 7.67917 8.97665C8.39437 9.40766 9.23341 9.89958 10.0094 10.4644C10.2346 10.5792 10.5398 10.581 10.7669 10.4664C11.5827 9.89958 11.9183 9.73561 13.1181 8.96526C13.2251 8.87889 13.301 8.75339 13.2997 8.60567C13.2984 8.45856 13.221 8.33473 13.1147 8.24979C12.4218 7.76795 11.5827 7.27603 10.7844 6.76207ZM10.258 7.19707C10.3384 7.15648 10.4705 7.15686 10.5515 7.19816C11.2471 7.60397 11.9183 8.09589 12.7689 8.60903C12.0862 9.07972 11.4149 9.57163 10.5359 10.0294C10.4554 10.07 10.3233 10.0696 10.2423 10.0283C9.44003 9.57163 8.72999 9.07972 8.02493 8.61741C8.72999 8.09589 9.23341 7.76795 10.258 7.19707Z" fill="#7E74F1"/>
<path d="M13.4836 9.82433C13.5572 9.93955 13.5213 10.0913 13.4034 10.1632L11.3537 11.4136C11.0793 11.5393 10.7416 11.7032 10.4081 11.7033C10.0745 11.7033 9.73684 11.5393 9.44003 11.4137L7.4128 10.1775C7.29486 10.1056 7.25892 9.95384 7.33253 9.8386C7.40613 9.72336 7.5614 9.68825 7.67933 9.76017L9.70657 10.9964C9.88919 11.1078 10.1485 11.2114 10.4081 11.2114C10.6677 11.2113 10.9045 11.1077 11.0871 10.9964L13.1368 9.74595C13.2547 9.67401 13.41 9.7091 13.4836 9.82433Z" fill="#7E74F1"/>
<path d="M13.4836 11.0556C13.5572 11.1709 13.5213 11.3226 13.4034 11.3945L11.6284 12.4777C11.0793 12.7402 10.8294 12.9025 10.3969 12.9025C9.96436 12.9025 9.40122 12.5762 9.16531 12.4778L7.41277 11.4088C7.29485 11.3369 7.25893 11.1851 7.33254 11.0699C7.40616 10.9547 7.56143 10.9196 7.67936 10.9915L9.4319 12.0606C9.69134 12.2188 10.0384 12.3592 10.3969 12.3592C10.7554 12.3591 11.1023 12.2187 11.3617 12.0605L13.1367 10.9773C13.2547 10.9053 13.4099 10.9404 13.4836 11.0556Z" fill="#7E74F1"/>
</svg>
